# xmcd CD database file
#
# Track frame offsets:
#	150
#	22170
#	39066
#	63997
#	84331
#	102659
#	123018
#	148871
#	170995
#	192862
#	209040
#
# Disc length: 3050 seconds
#
# Revision: 0
# Processed by: cddbd v1.5.2PL0 Copyright (c) Steve Scherf et al.
# Submitted via: CDex 1.70beta2
#
DISCID=9f0be80b
DTITLE=ltc - A Different View
DYEAR=2007
DGENRE=Jazz
TTITLE0=Just Give Me Time
TTITLE1=A Different View
TTITLE2=The Holy Ghost
TTITLE3=Magic Mirror
TTITLE4=Meninos das Laranjas
TTITLE5=Easy Does It
TTITLE6=Antony and Cleopatra's Love
TTITLE7=Shibuya Crossing
TTITLE8=Breakfast with Silvia
TTITLE9=I Wish I Knew How it Would Feed to Be Free
TTITLE10=Japanese Crowd (bonus track)
EXTD=YEAR: 2007
EXTT0=
EXTT1=
EXTT2=
EXTT3=
EXTT4=
EXTT5=
EXTT6=
EXTT7=
EXTT8=
EXTT9=
EXTT10=
PLAYORDER=
